grf
version=1
nRows=6
nColumns=37
inDegrees=no
endheader
time	ground_force_1_vx	ground_force_1_vy	ground_force_1_vz	ground_force_1_px	ground_force_1_py	ground_force_1_pz	ground_moment_1_mx	ground_moment_1_my	ground_moment_1_mz	ground_force_2_vx	ground_force_2_vy	ground_force_2_vz	ground_force_2_px	ground_force_2_py	ground_force_2_pz	ground_moment_2_mx	ground_moment_2_my	ground_moment_2_mz	ground_force_3_vx	ground_force_3_vy	ground_force_3_vz	ground_force_3_px	ground_force_3_py	ground_force_3_pz	ground_moment_3_mx	ground_moment_3_my	ground_moment_3_mz	ground_force_4_vx	ground_force_4_vy	ground_force_4_vz	ground_force_4_px	ground_force_4_py	ground_force_4_pz	ground_moment_4_mx	ground_moment_4_my	ground_moment_4_mz
      1.98000000	      0.00000000	     -0.00000000	      0.00000000	      0.00000000	      0.00000000	      0.00000000	      0.00000000	      0.00000000	      0.00000000	     16.39336777	    100.73870087	   -462.98208618	   -331.83836949	  -1194.80465120	      0.00000000	      0.00000000	      0.00000000	   1368.63471388	      2.71937155	    -81.84368157	   -387.83557129	   -320.07263212	   -590.70801540	      0.00000000	     -0.00000000	     -0.00000000	  -5884.27604320	      0.00000000	     -0.00000000	      0.00000000	      0.00000000	      0.00000000	      0.00000000	      0.00000000	      0.00000000	      0.00000000
      1.99000000	      0.00000000	     -0.00000000	      0.00000000	      0.00000000	      0.00000000	      0.00000000	      0.00000000	      0.00000000	      0.00000000	     17.96160698	    101.22187042	   -465.60449219	   -330.75549049	  -1195.45835072	      0.00000000	      0.00000000	      0.00000000	   1374.38085567	      2.25742975	    -82.83640309	   -387.36526489	   -318.66192198	   -590.73241943	      0.00000000	      0.00000000	     -0.00000000	  -5970.38179977	      0.00000000	     -0.00000000	      0.00000000	      0.00000000	      0.00000000	      0.00000000	      0.00000000	      0.00000000	      0.00000000
      2.00000000	      0.00000000	     -0.00000000	      0.00000000	      0.00000000	      0.00000000	      0.00000000	      0.00000000	      0.00000000	      0.00000000	     19.19975090	    101.19222260	   -462.11666870	   -329.84579267	  -1195.57198828	      0.00000000	      0.00000000	      0.00000000	   1480.95936698	      2.71046217	    -83.66094994	   -391.59240723	   -317.68550294	   -589.13313654	      0.00000000	     -0.00000000	     -0.00000000	  -6131.21084509	      0.00000000	     -0.00000000	      0.00000000	      0.00000000	      0.00000000	      0.00000000	      0.00000000	      0.00000000	      0.00000000
      2.01000000	      0.00000000	     -0.00000000	      0.00000000	      0.00000000	      0.00000000	      0.00000000	      0.00000000	      0.00000000	      0.00000000	     19.76512337	    101.09384155	   -459.09439087	   -328.36592851	  -1196.58625462	      0.00000000	      0.00000000	      0.00000000	   1376.60885481	      2.24738204	    -85.94678517	   -399.08032227	   -316.55401780	   -588.45165590	      0.00000000	      0.00000000	      0.00000000	  -6170.80753711	      0.00000000	     -0.00000000	      0.00000000	      0.00000000	      0.00000000	      0.00000000	      0.00000000	      0.00000000	      0.00000000
      2.02000000	      0.00000000	     -0.00000000	      0.00000000	      0.00000000	      0.00000000	      0.00000000	      0.00000000	      0.00000000	      0.00000000	     20.36054230	    101.06523132	   -460.03079224	   -327.12228855	  -1197.89751085	      0.00000000	      0.00000000	      0.00000000	   1311.81050246	      2.52319742	    -87.20257590	   -404.58721924	   -315.84140375	   -587.99887593	      0.00000000	      0.00000000	     -0.00000000	  -6275.42016695	      0.00000000	     -0.00000000	      0.00000000	      0.00000000	      0.00000000	      0.00000000	      0.00000000	      0.00000000	      0.00000000
      2.03000000	      0.00000000	     -0.00000000	      0.00000000	      0.00000000	      0.00000000	      0.00000000	      0.00000000	      0.00000000	      0.00000000	     19.91225624	    100.47097778	   -457.32638550	   -325.14558234	  -1197.62475401	      0.00000000	      0.00000000	      0.00000000	   1179.64717398	      2.47354640	    -88.43871329	   -409.24645996	   -314.44597326	   -587.60773876	      0.00000000	      0.00000000	     -0.00000000	  -6289.73927045	      0.00000000	     -0.00000000	      0.00000000	      0.00000000	      0.00000000	      0.00000000	      0.00000000	      0.00000000	      0.00000000
